<?xml version="1.0" encoding="utf-8"?>
<!DOCTYPE svg PUBLIC "-//W3C//DTD SVG 20010904//EN" "http://www.w3.org/TR/2001/REC-SVG-20010904/DTD/svg10.dtd">
<svg version="1.0" xmlns="http://www.w3.org/2000/svg" width="66pt" height="66pt" viewBox="0 0 66 66" style="" preserveAspectRatio="xMidYMid meet">
<g fill="#0076FFFF" stroke="#0076FFFF">
<path d="M 35.199 7.028 C 35.487 13.060 35.634 13.384 38.500 14.298 C 43.453 15.878 47.882 19.834 50.515 25.029 C 53.625 31.166 53.646 34.792 50.608 40.783 C 47.687 46.543 45.796 48.318 39.713 51.009 L 35.000 53.094 35.000 59.183 L 35.000 65.272 39.659 64.633 C 42.221 64.282 47.058 62.459 50.409 60.581 C 59.698 55.376 64.989 45.366 64.989 33.000 C 64.989 20.634 59.698 10.624 50.409 5.419 C 47.058 3.541 42.198 1.715 39.607 1.360 L 34.897 0.714 35.199 7.028 "/></g>
<g fill="#F1A308FF" stroke="#F1A308FF">
<path d="M 23.332 1.959 C 11.034 4.888 1.000 18.836 1.000 33.000 C 1.000 48.528 12.145 62.444 26.250 64.526 L 31.000 65.227 31.000 59.182 L 31.000 53.138 25.287 50.310 C 17.987 46.696 13.500 40.107 13.500 33.000 C 13.500 25.947 17.971 19.346 25.283 15.607 L 31.000 12.683 31.000 6.842 C 31.000 0.400 30.695 0.205 23.332 1.959 "/></g>
</svg>
